# Blender v2.78 (sub 0) OBJ File: 'trainkit.blend'
# www.blender.org
mtllib trainkitStraightFlat.mtl
o TrainTrack001_Cube
v 1.501155 0.000000 0.500000
v 1.501155 0.180340 0.500000
v 1.501155 0.000000 -0.500000
v 1.501155 0.180340 -0.500000
v 2.498845 0.000000 0.500000
v 2.498845 0.180340 0.500000
v 2.498845 0.000000 -0.500000
v 2.498845 0.180340 -0.500000
v 1.750975 0.000000 -0.500000
v 1.750975 0.180340 -0.500000
v 1.750975 0.000000 0.500000
v 1.750975 0.180340 0.500000
v 2.248947 0.180340 -0.500000
v 2.248947 0.000000 0.500000
v 2.248947 0.000000 -0.500000
v 2.248947 0.180340 0.500000
v 2.152323 0.000000 -0.500000
v 1.847599 0.000000 -0.500000
v 2.152323 0.227812 0.500000
v 1.847599 0.227812 0.500000
v 1.847599 0.227812 -0.500000
v 2.152323 0.227812 -0.500000
v 1.847599 0.000000 0.500000
v 2.152323 0.000000 0.500000
v 1.501155 0.000000 -0.400000
v 1.501155 0.000000 -0.300000
v 1.501155 0.000000 -0.200000
v 1.501155 0.000000 -0.100000
v 1.501155 0.000000 0.000000
v 1.501155 0.000000 0.100000
v 1.501155 0.000000 0.200000
v 1.501155 0.000000 0.300000
v 1.501155 0.000000 0.400000
v 1.501155 0.180340 0.400000
v 1.501155 0.180340 0.300000
v 1.501155 0.180340 0.200000
v 1.501155 0.180340 0.100000
v 1.501155 0.180340 0.000000
v 1.501155 0.180340 -0.100000
v 1.501155 0.180340 -0.200000
v 1.501155 0.180340 -0.300000
v 1.501155 0.180340 -0.400000
v 2.498845 0.000000 0.400000
v 2.498845 0.000000 0.300000
v 2.498845 0.000000 0.200000
v 2.498845 0.000000 0.100000
v 2.498845 0.000000 0.000000
v 2.498845 0.000000 -0.100000
v 2.498845 0.000000 -0.200000
v 2.498845 0.000000 -0.300000
v 2.498845 0.000000 -0.400000
v 2.498845 0.180340 -0.400000
v 2.498845 0.180340 -0.300000
v 2.498845 0.180340 -0.200000
v 2.498845 0.180340 -0.100000
v 2.498845 0.180340 0.000000
v 2.498845 0.180340 0.100000
v 2.498845 0.180340 0.200000
v 2.498845 0.180340 0.300000
v 2.498845 0.180340 0.400000
v 1.750975 0.180340 -0.400000
v 1.750975 0.180340 -0.300000
v 1.750975 0.180340 -0.200000
v 1.750975 0.180340 -0.100000
v 1.750975 0.180340 0.000000
v 1.750975 0.180340 0.100000
v 1.750975 0.180340 0.200000
v 1.750975 0.180340 0.300000
v 1.750975 0.180340 0.400000
v 2.152323 0.248062 0.400000
v 1.847599 0.248062 0.400000
v 2.152323 0.248062 0.500000
v 1.847599 0.248062 -0.300000
v 1.847599 0.248062 -0.100000
v 1.847599 0.248062 0.100000
v 1.847599 0.248062 0.300000
v 1.857063 0.248044 -0.499847
v 1.870193 0.248044 -0.499847
v 2.248947 0.180340 -0.400000
v 2.248947 0.180340 -0.300000
v 2.248947 0.180340 -0.200000
v 2.248947 0.180340 -0.100000
v 2.248947 0.180340 0.000000
v 2.248947 0.180340 0.100000
v 2.248947 0.180340 0.200000
v 2.248947 0.180340 0.300000
v 2.248947 0.180340 0.400000
v 1.847599 0.248062 -0.200000
v 1.847599 0.248062 0.000000
v 1.847599 0.248062 0.200000
v 1.857063 0.260161 0.499286
v 1.870193 0.260161 0.499286
v 2.141717 0.248044 -0.499847
v 2.128587 0.260161 -0.499847
v 2.128587 0.248044 0.499286
v 2.141717 0.248044 0.499286
v 1.847599 0.248062 0.500000
v 2.152323 0.248062 -0.400000
v 2.152323 0.248062 -0.300000
v 2.152323 0.248062 -0.100000
v 2.152323 0.248062 0.100000
v 2.152323 0.248062 0.300000
v 1.857063 0.260161 -0.499847
v 1.870193 0.260161 -0.499847
v 2.128587 0.260161 0.499286
v 1.847599 0.248062 -0.400000
v 2.152323 0.248062 -0.200000
v 2.152323 0.248062 0.000000
v 2.152323 0.248062 0.200000
v 1.857063 0.248044 0.499286
v 1.870193 0.248044 0.499286
v 2.128587 0.248044 -0.499847
v 2.141717 0.260161 0.499286
v 2.141717 0.260161 -0.499847
v 2.152323 0.227812 -0.400000
v 2.152323 0.227812 -0.300000
v 2.152323 0.227812 -0.200000
v 2.152323 0.227812 -0.100000
v 2.152323 0.227812 0.000000
v 2.152323 0.227812 0.100000
v 2.152323 0.227812 0.200000
v 2.152323 0.227812 0.300000
v 2.152323 0.227812 0.400000
v 1.847599 0.227812 -0.400000
v 1.847599 0.227812 -0.300000
v 1.847599 0.227812 -0.200000
v 1.847599 0.227812 -0.100000
v 1.847599 0.227812 0.000000
v 1.847599 0.227812 0.100000
v 1.847599 0.227812 0.200000
v 1.847599 0.227812 0.300000
v 1.847599 0.227812 0.400000
vn 0.0000 0.0000 1.0000
vn 0.0000 0.0000 -1.0000
vn 0.0000 1.0000 0.0000
vn -1.0000 0.0000 0.0000
vn 0.4410 0.8975 0.0000
vn -0.4410 0.8975 0.0000
vn 0.0000 -1.0000 0.0000
vn 1.0000 0.0000 0.0000
usemtl Asphalt
s off
f 23//1 20//1 12//1 11//1
f 17//2 22//2 13//2 15//2
f 9//2 10//2 21//2 18//2
f 18//2 21//2 22//2 17//2
f 14//1 16//1 19//1 24//1
f 24//1 19//1 20//1 23//1
f 22//3 21//3 124//3 115//3
f 116//3 125//3 126//3 117//3
f 118//3 127//3 128//3 119//3
f 120//3 129//3 130//3 121//3
f 122//3 131//3 132//3 123//3
f 20//4 97//4 71//4 132//4
f 123//5 19//5 16//5 87//5 86//5 85//5 84//5 83//5 82//5 81//5 80//5 79//5 13//5 22//5 115//5 116//5 117//5 118//5 119//5 120//5 121//5 122//5
f 69//6 12//6 20//6 132//6 131//6 130//6 129//6 128//6 127//6 126//6 125//6 124//6 21//6 10//6 61//6 62//6 63//6 64//6 65//6 66//6 67//6 68//6
f 43//7 5//7 14//7 24//7 23//7 11//7 1//7 33//7 32//7 31//7 30//7 29//7 28//7 27//7 26//7 25//7 3//7 9//7 18//7 17//7 15//7 7//7 51//7 50//7 49//7 48//7 47//7 46//7 45//7 44//7
usemtl Grass
f 15//2 13//2 8//2 7//2
f 11//1 12//1 2//1 1//1
f 3//2 4//2 10//2 9//2
f 5//1 6//1 16//1 14//1
f 87//3 16//3 6//3 60//3 59//3 58//3 57//3 56//3 55//3 54//3 53//3 52//3 8//3 13//3 79//3 80//3 81//3 82//3 83//3 84//3 85//3 86//3
f 60//8 6//8 5//8 43//8 44//8 45//8 46//8 47//8 48//8 49//8 50//8 51//8 7//8 8//8 52//8 53//8 54//8 55//8 56//8 57//8 58//8 59//8
f 42//4 4//4 3//4 25//4 26//4 27//4 28//4 29//4 30//4 31//4 32//4 33//4 1//4 2//4 34//4 35//4 36//4 37//4 38//4 39//4 40//4 41//4
f 34//3 2//3 12//3 69//3 68//3 67//3 66//3 65//3 64//3 63//3 62//3 61//3 10//3 4//3 42//3 41//3 40//3 39//3 38//3 37//3 36//3 35//3
usemtl metal.001
f 77//7 78//7 111//7 110//7
f 111//1 92//1 91//1 110//1
f 78//8 104//8 92//8 111//8
f 77//2 103//2 104//2 78//2
f 110//4 91//4 103//4 77//4
f 93//8 114//8 113//8 96//8
f 96//1 113//1 105//1 95//1
f 112//2 94//2 114//2 93//2
f 112//7 93//7 96//7 95//7
f 114//3 94//3 105//3 113//3
f 104//3 103//3 91//3 92//3
f 95//4 105//4 94//4 112//4
usemtl wood
f 98//3 106//3 73//3 99//3
f 116//1 99//1 73//1 125//1
f 118//1 100//1 74//1 127//1
f 120//1 101//1 75//1 129//1
f 122//1 102//1 76//1 131//1
f 123//8 70//8 72//8 19//8
f 125//4 73//4 106//4 124//4
f 127//4 74//4 88//4 126//4
f 129//4 75//4 89//4 128//4
f 131//4 76//4 90//4 130//4
f 115//8 98//8 99//8 116//8
f 117//8 107//8 100//8 118//8
f 119//8 108//8 101//8 120//8
f 121//8 109//8 102//8 122//8
f 70//3 71//3 97//3 72//3
f 132//2 71//2 70//2 123//2
f 19//1 72//1 97//1 20//1
f 124//2 106//2 98//2 115//2
f 126//2 88//2 107//2 117//2
f 128//2 89//2 108//2 119//2
f 130//2 90//2 109//2 121//2
f 107//3 88//3 74//3 100//3
f 108//3 89//3 75//3 101//3
f 109//3 90//3 76//3 102//3
